# xmcd
#
# Track frame offsets:
#	150
#	14205
#	27848
#	80798
#	91545
#	107588
#	126468
#	140735
#
# Disc length: 2087 seconds
#
# Revision: 9
# Processed by: cddbd v1.5.2PL0 Copyright (c) Steve Scherf et al.
# Submitted via: audiograbber 1.83.01
#
DISCID=6a082508
DTITLE=Temptations, The - All directions
DYEAR=1972
DGENRE=Soul
TTITLE0=Funky music sho nuff turns me on
TTITLE1=Run Charlie run
TTITLE2=Papa was a rollin' stone
TTITLE3=Love woke me up this morning
TTITLE4=I ain't got nothin'
TTITLE5=The first time ever (I saw your face)
TTITLE6=Mother nature
TTITLE7=Do your thing
EXTD=
EXTT0=
EXTT1=
EXTT2=
EXTT3=
EXTT4=
EXTT5=
EXTT6=
EXTT7=
PLAYORDER=
